<?xml version="1.0" encoding="iso-8859-1"?>
<!-- Uploaded to: SVG Repo, www.svgrepo.com, Generator: SVG Repo Mixer Tools -->
<svg height="800px" width="800px" version="1.1" id="Layer_1" xmlns="http://www.w3.org/2000/svg" xmlns:xlink="http://www.w3.org/1999/xlink" 
	 viewBox="0 0 511.984 511.984" xml:space="preserve">
<path style="fill:#ED5564;" d="M351.989,85.337H287.99c-5.89,0-10.671-4.766-10.671-10.672c0-5.89,4.781-10.656,10.671-10.656
	h63.999c5.89,0,10.655,4.766,10.655,10.656C362.644,80.571,357.879,85.337,351.989,85.337z"/>
<path style="fill:#DA4453;" d="M287.99,85.337c-2.733,0-5.468-1.047-7.546-3.125c-4.172-4.156-4.172-10.922,0-15.078l21.327-21.343
	c4.172-4.156,10.922-4.156,15.094,0c4.156,4.172,4.156,10.922,0,15.094l-21.344,21.327C293.443,84.29,290.709,85.337,287.99,85.337z
	"/>
<path style="fill:#ED5564;" d="M309.318,64.009h-53.326c-5.891,0-10.672-4.781-10.672-10.671s4.781-10.657,10.672-10.657h53.326
	c5.891,0,10.672,4.766,10.672,10.656S315.209,64.009,309.318,64.009z"/>
<path style="fill:#434A54;" d="M255.992,128.008c-5.891,0-10.672-4.781-10.672-10.672V32.01c0-5.89,4.781-10.671,10.672-10.671
	s10.656,4.781,10.656,10.671v85.326C266.648,123.226,261.883,128.008,255.992,128.008z"/>
<path style="fill:#F6BB42;" d="M330.646,170.662H181.322c-5.891,0-10.656,4.781-10.656,10.671v123.91
	c0,5.875,4.766,10.656,10.656,10.656h149.324c5.891,0,10.671-4.781,10.671-10.656v-123.91
	C341.317,175.443,336.537,170.662,330.646,170.662z"/>
<path style="fill:#FFCE54;" d="M341.317,106.664h-31.999c-5.891,0-10.672,4.781-10.672,10.672v10.672H287.99v-10.672
	c0-5.891-4.78-10.672-10.671-10.672h-42.67c-5.891,0-10.656,4.781-10.656,10.672v10.672h-10.672v-10.672
	c0-5.891-4.781-10.672-10.656-10.672h-31.999c-5.905,0-10.671,4.781-10.671,10.672v63.998c0,5.891,4.766,10.672,10.671,10.672
	h170.651c5.891,0,10.672-4.781,10.672-10.672v-63.998C351.989,111.445,347.208,106.664,341.317,106.664z"/>
<path style="fill:#ED5564;" d="M394.644,490.645h-277.32c-5.891,0-10.656-4.312-10.656-9.625V307.619
	c0-5.312,4.766-9.625,10.656-9.625h277.32c5.891,0,10.671,4.312,10.671,9.625V481.02
	C405.315,486.333,400.535,490.645,394.644,490.645z"/>
<path style="fill:#434A54;" d="M255.992,373.336c-23.562,0-42.671,19.094-42.671,42.655v74.654h85.325v-74.654
	C298.646,392.43,279.554,373.336,255.992,373.336z"/>
<path style="fill:#656D78;" d="M266.648,447.99v-21.343h31.998v-10.656c0-3.688-0.469-7.249-1.344-10.655h-30.654V374.68
	c-3.406-0.906-6.984-1.344-10.656-1.344c-3.688,0-7.266,0.438-10.672,1.344v30.656h-30.655c-0.875,3.406-1.344,6.968-1.344,10.655
	v10.656h31.999v21.343h-31.999v21.312h31.999v21.343h21.328v-21.343h31.998V447.99H266.648z"/>
<path style="fill:#FFCE54;" d="M255.992,298.65c-5.891,0-10.672-4.78-10.672-10.655v-63.99c0-5.906,4.781-10.672,10.672-10.672
	s10.656,4.766,10.656,10.672v63.99C266.648,293.87,261.883,298.65,255.992,298.65z"/>
<path style="fill:#DA4453;" d="M394.644,277.339h-21.328c0,5.875-4.781,10.656-10.672,10.656s-10.655-4.781-10.655-10.656h-21.343
	c0,5.875-4.766,10.656-10.656,10.656s-10.672-4.781-10.672-10.656H287.99c0,5.875-4.78,10.656-10.671,10.656
	s-10.671-4.781-10.671-10.656H245.32c0,5.875-4.781,10.656-10.671,10.656c-5.891,0-10.656-4.781-10.656-10.656h-21.328
	c0,5.875-4.78,10.656-10.671,10.656s-10.672-4.781-10.672-10.656h-21.327c0,5.875-4.781,10.656-10.672,10.656
	s-10.656-4.781-10.656-10.656h-21.343c-5.891,0-10.656,9.531-10.656,21.312s4.766,21.344,10.656,21.344h277.32
	c5.891,0,10.671-9.562,10.671-21.344C405.315,286.87,400.535,277.339,394.644,277.339z"/>
<g>
	<path style="fill:#FFCE54;" d="M117.324,490.645H10.671C4.78,490.645,0,485.864,0,479.989V287.995
		c0-5.906,4.78-10.656,10.671-10.656h106.653c5.891,0,10.672,4.75,10.672,10.656v191.994
		C127.996,485.864,123.215,490.645,117.324,490.645z"/>
	<path style="fill:#FFCE54;" d="M501.312,490.645H394.644c-5.891,0-10.672-4.781-10.672-10.656V287.995
		c0-5.906,4.781-10.656,10.672-10.656h106.668c5.891,0,10.656,4.75,10.656,10.656v191.994
		C511.969,485.864,507.203,490.645,501.312,490.645z"/>
</g>
<path style="fill:#434A54;" d="M479.97,256.004h-63.998c-5.891,0-10.656-4.781-10.656-10.672v-42.67
	c0-5.891,4.766-10.656,10.656-10.656h63.998c5.891,0,10.671,4.765,10.671,10.656v42.67
	C490.64,251.222,485.86,256.004,479.97,256.004z M426.642,234.66h42.672v-21.328h-42.672V234.66z"/>
<path style="fill:#ED5564;" d="M501.312,213.333L501.312,213.333H394.644c-4.141,0-7.906-2.391-9.656-6.141
	s-1.188-8.171,1.469-11.358l53.326-63.999c2.031-2.422,5.031-3.828,8.188-3.828c3.172,0,6.172,1.406,8.203,3.828l53.029,63.655
	c1.734,1.89,2.781,4.406,2.781,7.171C511.984,208.552,507.219,213.333,501.312,213.333z"/>
<path style="fill:#434A54;" d="M95.997,256.004H31.999c-5.891,0-10.672-4.781-10.672-10.672v-42.67
	c0-5.891,4.781-10.656,10.672-10.656h63.998c5.89,0,10.671,4.765,10.671,10.656v42.67
	C106.668,251.222,101.887,256.004,95.997,256.004z M42.67,234.66h42.655v-21.328H42.67V234.66z"/>
<path style="fill:#ED5564;" d="M117.34,213.333c0,0,0,0-0.016,0H10.671c-4.141,0-7.906-2.391-9.656-6.141
	c-1.765-3.75-1.187-8.171,1.453-11.358l53.343-63.999c2.016-2.422,5.016-3.828,8.188-3.828c3.172,0,6.171,1.406,8.202,3.828
	l53.03,63.655c1.719,1.89,2.781,4.406,2.781,7.171C128.012,208.552,123.23,213.333,117.34,213.333z"/>
<g>
	<polygon style="fill:#F6BB42;" points="0,447.99 127.996,447.99 127.996,426.647 74.669,426.647 74.669,277.339 53.326,277.339 
		53.326,426.647 0,426.647 	"/>
	<polygon style="fill:#F6BB42;" points="383.988,447.99 511.984,447.99 511.984,426.647 458.642,426.647 458.642,277.339 
		437.314,277.339 437.314,426.647 383.988,426.647 	"/>
	<path style="fill:#F6BB42;" d="M117.012,242.738c-1.188-4.75-5.453-8.078-10.344-8.078H21.327c-4.891,0-9.156,3.328-10.344,8.078
		L0.327,285.401c-0.796,3.188-0.094,6.562,1.938,9.156c2.016,2.594,5.125,4.093,8.406,4.093h106.653c0.016,0,0.016,0,0.016,0
		c5.891,0,10.672-4.78,10.672-10.655c0-1.094-0.172-2.156-0.469-3.156L117.012,242.738z"/>
	<path style="fill:#F6BB42;" d="M511.515,284.839l-10.531-42.101c-1.188-4.75-5.453-8.078-10.344-8.078h-85.325
		c-4.89,0-9.155,3.328-10.343,8.078L384.3,285.401c-0.797,3.188-0.078,6.562,1.938,9.156s5.125,4.093,8.406,4.093h106.668l0,0
		c5.906,0,10.672-4.78,10.672-10.655C511.984,286.901,511.828,285.839,511.515,284.839z"/>
</g>
</svg>